<?xml version="1.0" encoding="UTF-8" standalone="no"?>
<!DOCTYPE svg PUBLIC "-//W3C//DTD SVG 1.1//EN" "http://www.w3.org/Graphics/SVG/1.1/DTD/svg11.dtd">
<svg width="100%" height="100%" viewBox="0 0 450 450" version="1.1" xmlns="http://www.w3.org/2000/svg" xmlns:xlink="http://www.w3.org/1999/xlink" xml:space="preserve" xmlns:serif="http://www.serif.com/" style="fill-rule:evenodd;clip-rule:evenodd;stroke-linejoin:round;stroke-miterlimit:2;">
    <g transform="matrix(4.725,0,0,4.25762,-838.125,-736.634)">
        <g transform="matrix(1.2217,0,0,0.831579,167.104,205.74)">
            <path d="M28.885,11.242C28.885,6.636 26.591,2.897 23.766,2.897L13.53,2.897C10.705,2.897 8.412,6.636 8.412,11.242L8.412,58.771C8.412,63.377 10.705,67.116 13.53,67.116L23.766,67.116C26.591,67.116 28.885,63.377 28.885,58.771L28.885,11.242Z" style="fill:rgb(250,213,113);"/>
        </g>
        <g transform="matrix(1.22114,0,0,0.711278,237.347,213.814)">
            <path d="M28.885,12.649C28.885,7.267 26.591,2.897 23.766,2.897L13.53,2.897C10.705,2.897 8.412,7.267 8.412,12.649L8.412,57.364C8.412,62.746 10.705,67.116 13.53,67.116L23.766,67.116C26.591,67.116 28.885,62.746 28.885,57.364L28.885,12.649Z" style="fill:rgb(250,100,115);"/>
        </g>
        <g transform="matrix(1.22114,0,0,1.1609,202.228,183.637)">
            <path d="M28.885,8.872C28.885,5.574 26.591,2.897 23.766,2.897L13.53,2.897C10.705,2.897 8.412,5.574 8.412,8.872L8.412,61.141C8.412,64.438 10.705,67.116 13.53,67.116L23.766,67.116C26.591,67.116 28.885,64.438 28.885,61.141L28.885,8.872Z" style="fill:rgb(100,190,250);"/>
        </g>
    </g>
</svg>
