<?xml version="1.0" encoding="UTF-8" standalone="no"?>
<!DOCTYPE svg PUBLIC "-//W3C//DTD SVG 1.1//EN" "http://www.w3.org/Graphics/SVG/1.1/DTD/svg11.dtd">
<svg width="100%" height="100%" viewBox="0 0 450 451" version="1.1" xmlns="http://www.w3.org/2000/svg" xmlns:xlink="http://www.w3.org/1999/xlink" xml:space="preserve" xmlns:serif="http://www.serif.com/" style="fill-rule:evenodd;clip-rule:evenodd;stroke-linejoin:round;stroke-miterlimit:2;">
    <g transform="matrix(2.27486,0,0,2.27486,-116.23,-116.225)">
        <path d="M149.999,248.909C95.462,248.909 51.093,204.542 51.093,150C51.093,95.463 95.462,51.091 149.999,51.091C204.544,51.091 248.907,95.463 248.907,150C248.907,204.542 204.544,248.909 149.999,248.909ZM149.999,63.671C102.398,63.671 63.669,102.394 63.669,150C63.669,197.605 102.398,236.332 149.999,236.332C197.609,236.332 236.337,197.605 236.337,150C236.337,102.394 197.609,63.671 149.999,63.671ZM161.52,101.16C156.688,91.375 153.737,81.86 152.247,76.315L152.247,146.37C154.694,147.287 156.444,149.627 156.444,152.391C156.444,155.95 153.557,158.833 150.001,158.833C146.441,158.833 143.558,155.948 143.558,152.391C143.558,149.495 145.483,147.074 148.116,146.26L148.116,76.241C146.631,81.772 143.678,91.333 138.823,101.16C131.252,116.474 121.814,129.983 121.814,129.983L127.85,212.581C127.85,212.581 133.586,218.982 150.16,218.991L150.183,218.991C166.756,218.982 172.495,212.581 172.495,212.581L178.53,129.983C178.527,129.983 169.089,116.475 161.52,101.16Z" style="fill:rgb(51,51,51);fill-rule:nonzero;"/>
    </g>
</svg>
